<svg xmlns="http://www.w3.org/2000/svg" viewBox="0 0 899 1170" width="899" height="1170">
	<style>
		tspan { white-space:pre }
		.shp0 { fill: #282828 } 
	</style>
	<g id="Samsung Galaxy Fold">
		<path id="Base" class="shp0" d="M799.18 198.81C801.97 198.81 804.23 201.07 804.23 203.86L804.23 362.95C804.23 365.74 801.97 368 799.18 368C796.39 368 794.12 365.74 794.12 362.95L794.12 203.86C794.12 201.07 796.39 198.81 799.18 198.81ZM799.18 409.34C801.97 409.34 804.23 411.6 804.23 414.39L804.23 472.54C804.23 475.33 801.97 477.59 799.18 477.59C796.39 477.59 794.12 475.33 794.12 472.54L794.12 414.39C794.12 411.6 796.39 409.34 799.18 409.34ZM119.01 52.67L739.79 52.67C772.19 52.67 798.46 78.94 798.46 111.34L798.46 1028.42C798.46 1060.82 772.19 1087.08 739.79 1087.08L119.01 1087.08C86.61 1087.08 60.34 1060.82 60.34 1028.42L60.34 111.34C60.34 78.94 86.61 52.67 119.01 52.67Z" />
	</g>
</svg>