<svg xmlns="http://www.w3.org/2000/svg" viewBox="0 0 1600 1200" width="1600" height="1200">
	<style>
		tspan { white-space:pre }
		.shp0 { fill: #aefaff } 
	</style>
	<g id="BG">
		<path id="BG" class="shp0" d="M580.5 -351C755.44 -350.71 914.41 -281.57 1028.34 -166.21C1142.57 -51.34 1211.77 109.75 1214 282.57C1211.71 371.61 1194.71 454.96 1149.42 540.64C1105.39 625.21 1033.08 712.11 949.2 782.8C865.61 853.44 770.44 907.9 687.28 926.39C603.43 945.86 531.59 929.37 478.92 880.87C423.12 835.06 383.06 768.67 334.92 714.01C288.09 657.67 233.18 613.07 177.74 571.92C122.69 530.34 67.08 492.24 27.77 439.39C-12.06 387.39 -35.61 320.64 -38.59 241.45C-43.64 80.96 24.99 -71.31 136.08 -175.66C247.06 -279.72 405.62 -351.14 580.5 -351L580.5 -351ZM1564.06 1100C1636.94 1100.12 1703.18 1128.9 1750.65 1176.91C1798.24 1224.73 1827.07 1291.78 1828 1363.71C1827.04 1400.76 1819.96 1435.46 1801.09 1471.12C1782.75 1506.32 1752.62 1542.49 1717.67 1571.91C1682.85 1601.31 1643.2 1623.98 1608.55 1631.68C1573.61 1639.78 1543.68 1632.92 1521.74 1612.73C1498.49 1593.66 1481.8 1566.03 1461.74 1543.28C1442.23 1519.83 1419.35 1501.27 1396.25 1484.14C1373.31 1466.83 1350.15 1450.97 1333.77 1428.98C1317.17 1407.33 1307.36 1379.55 1306.12 1346.59C1304.01 1279.79 1332.61 1216.41 1378.89 1172.98C1425.13 1129.67 1491.2 1099.94 1564.06 1100L1564.06 1100Z" />
	</g>
</svg>