<svg xmlns="http://www.w3.org/2000/svg" viewBox="0 0 463 185" width="463" height="185">
	<style>
		tspan { white-space:pre }
		.shp0 { fill: #282828 } 
	</style>
	<g id="ETC">
		<path id="Text" class="shp0" d="M54.34 30.91L31.89 30.91L31.89 41.56L41.19 41.56L41.19 54.18C40.12 54.71 37.61 55.07 34.48 55.07C23.3 55.07 15.51 47.73 15.51 35.29C15.51 22.23 24.1 15.78 35.47 15.78C42.09 15.78 46.2 16.95 49.51 18.38L52.38 7.46C49.42 6.03 43.43 4.51 35.64 4.51C15.87 4.51 1.29 15.96 1.2 36.01C1.11 44.87 4.15 52.74 9.7 57.93C15.24 63.3 23.21 66.08 34.21 66.08C42.18 66.08 50.14 64.11 54.34 62.68L54.34 30.91ZM102.4 65.45C101.95 63.04 101.77 59.01 101.77 54.8L101.77 39.59C101.77 29.3 97.12 20.7 82.54 20.7C74.57 20.7 68.58 22.85 65.54 24.55L68.04 33.32C70.9 31.53 75.65 30.01 80.12 30.01C86.83 30.01 88.08 33.32 88.08 35.65L88.08 36.28C72.6 36.19 62.4 41.65 62.4 53.01C62.4 59.99 67.68 66.44 76.54 66.44C81.73 66.44 86.2 64.56 89.07 61.07L89.34 61.07L90.14 65.45L102.4 65.45ZM88.53 49.52C88.53 50.33 88.44 51.13 88.26 51.85C87.37 54.62 84.59 56.86 81.19 56.86C78.15 56.86 75.82 55.16 75.82 51.67C75.82 46.39 81.37 44.69 88.53 44.78L88.53 49.52ZM112.52 65.45L126.12 65.45L126.12 1.91L112.52 1.91L112.52 65.45ZM174.26 65.45C173.81 63.04 173.63 59.01 173.63 54.8L173.63 39.59C173.63 29.3 168.98 20.7 154.39 20.7C146.43 20.7 140.43 22.85 137.39 24.55L139.9 33.32C142.76 31.53 147.5 30.01 151.98 30.01C158.69 30.01 159.94 33.32 159.94 35.65L159.94 36.28C144.46 36.19 134.26 41.65 134.26 53.01C134.26 59.99 139.54 66.44 148.4 66.44C153.59 66.44 158.06 64.56 160.92 61.07L161.19 61.07L162 65.45L174.26 65.45ZM160.39 49.52C160.39 50.33 160.3 51.13 160.12 51.85C159.22 54.62 156.45 56.86 153.05 56.86C150.01 56.86 147.68 55.16 147.68 51.67C147.68 46.39 153.23 44.69 160.39 44.78L160.39 49.52ZM179.54 21.69L194.04 43.17L179.18 65.45L194.12 65.45L198.24 57.58C199.31 55.43 200.48 53.28 201.55 50.95L201.82 50.95C202.89 53.19 203.97 55.43 205.22 57.58L209.6 65.45L224.99 65.45L210.41 42.54L224.81 21.69L210.05 21.69L206.2 28.76C205.04 30.91 203.97 33.14 202.8 35.47L202.62 35.47C201.46 33.41 200.3 31.18 199.05 28.94L194.75 21.69L179.54 21.69ZM227.59 21.69L243.61 61.69C244.15 62.77 244.24 63.48 244.24 63.93C244.24 64.56 243.97 65.27 243.52 65.9C242.18 68.14 239.94 70.29 237.88 71.36C235.83 72.61 233.68 73.42 231.98 73.69L234.84 85.23C238.24 84.78 243.25 83.35 247.99 79.24C252.92 74.85 257.12 67.87 263.38 50.51L273.58 21.69L259 21.69L253.63 43.17C253 45.67 252.29 48.99 251.66 51.31L251.39 51.31C250.86 48.99 249.96 45.76 249.25 43.17L242.72 21.69L227.59 21.69ZM297.84 65.45L311.53 65.45L311.53 41.2L333.18 41.2L333.18 30.1L311.53 30.1L311.53 16.32L334.7 16.32L334.7 5.13L297.84 5.13L297.84 65.45ZM363.07 20.7C349.02 20.7 339.72 29.74 339.72 43.88C339.72 58.02 349.56 66.44 362.36 66.44C374.08 66.44 385.44 59.1 385.44 43.08C385.44 29.92 376.49 20.7 363.07 20.7ZM362.71 30.37C368.89 30.37 371.39 36.99 371.39 43.53C371.39 51.4 367.99 56.68 362.71 56.68C356.9 56.68 353.77 51.04 353.77 43.53C353.77 37.08 356.18 30.37 362.71 30.37ZM393.86 65.45L407.46 65.45L407.46 1.91L393.86 1.91L393.86 65.45ZM447.28 1.91L447.28 25.63L447.1 25.63C445.13 22.58 440.92 20.7 435.56 20.7C425.09 20.7 415.87 29.21 415.96 43.97C415.96 57.58 424.28 66.44 434.66 66.44C440.3 66.44 445.58 63.93 448.35 59.01L448.53 59.01L449.16 65.45L461.23 65.45C461.06 62.5 460.88 57.31 460.88 52.39L460.88 1.91L447.28 1.91ZM447.28 45.94C447.28 47.11 447.19 48.09 446.92 49.07C446.11 52.92 442.98 55.61 439.04 55.61C433.41 55.61 429.74 50.95 429.74 43.53C429.74 36.63 432.96 31.09 439.13 31.09C443.34 31.09 446.29 34.13 447.1 37.8C447.19 38.51 447.28 39.5 447.28 40.21L447.28 45.94ZM55.87 165.74L69.2 165.74L65.89 105.42L48.08 105.42L41.64 125.47C39.67 132.18 37.61 140.15 35.91 147.13L35.64 147.13C34.3 140.06 32.42 132.54 30.54 125.56L24.64 105.42L6.48 105.42L2.63 165.74L15.24 165.74L16.32 142.83C16.76 135.32 17.03 126.01 17.39 117.86L17.57 117.86C19 125.74 21.06 134.33 23.03 141.4L29.47 164.76L40.12 164.76L47.45 141.22C49.78 134.15 52.29 125.56 54.17 117.86L54.43 117.86C54.43 126.63 54.7 135.4 54.97 142.65L55.87 165.74ZM100.34 121C86.29 121 76.99 130.04 76.99 144.18C76.99 158.32 86.83 166.73 99.63 166.73C111.35 166.73 122.71 159.39 122.71 143.37C122.71 130.21 113.76 121 100.34 121ZM99.98 130.66C106.16 130.66 108.66 137.28 108.66 143.82C108.66 151.69 105.26 156.97 99.98 156.97C94.17 156.97 91.04 151.34 91.04 143.82C91.04 137.37 93.45 130.66 99.98 130.66ZM162.62 154.65C160.56 155.45 158.06 155.99 154.84 155.99C148.22 155.99 142.85 151.78 142.85 143.73C142.76 136.57 147.41 131.47 154.57 131.47C158.15 131.47 160.56 132.09 162.17 132.81L164.32 122.7C161.46 121.62 157.52 121 153.94 121C137.66 121 128.89 131.47 128.89 144.27C128.89 158.05 137.93 166.64 152.06 166.64C157.25 166.64 161.82 165.74 164.23 164.67L162.62 154.65ZM185.35 102.2L171.75 102.2L171.75 165.74L185.35 165.74L185.35 152.05L188.84 147.76L199.4 165.74L216.13 165.74L198.24 139.7L213.9 121.98L197.52 121.98L188.66 135.14C187.59 136.84 186.52 138.63 185.53 140.42L185.35 140.42L185.35 102.2ZM261.5 121.98L247.81 121.98L247.81 148.02C247.81 149.1 247.72 150.17 247.36 150.98C246.47 153.13 244.32 155.72 240.56 155.72C235.82 155.72 233.76 151.87 233.76 145.52L233.76 121.98L220.07 121.98L220.07 147.67C220.07 161.18 226.61 166.73 235.46 166.73C243.34 166.73 247.45 162.25 249.15 159.57L249.42 159.57L250.05 165.74L261.86 165.74C261.68 162.08 261.5 157.42 261.5 151.69L261.5 121.98ZM272.42 183.46L286.02 183.46L286.02 161.72L286.2 161.72C288.17 164.58 292.29 166.73 297.57 166.73C307.32 166.73 317.43 159.21 317.43 143.28C317.43 129.32 308.84 121 299.27 121C292.91 121 287.9 123.41 284.68 128.07L284.5 128.07L283.88 121.98L272.06 121.98C272.24 126.01 272.42 130.93 272.42 136.66L272.42 183.46ZM286.02 140.95C286.02 140.15 286.11 139.25 286.29 138.54C287.19 134.51 290.59 131.65 294.43 131.65C300.52 131.65 303.65 136.93 303.65 143.91C303.65 151.34 300.16 156.26 294.25 156.26C290.32 156.26 287.19 153.48 286.29 149.81C286.11 149.01 286.02 148.02 286.02 146.95L286.02 140.95Z" />
	</g>
</svg>